<?xml version="1.0" encoding="utf-8"?>
<!-- Generator: Adobe Illustrator 23.0.0, SVG Export Plug-In . SVG Version: 6.00 Build 0)  -->
<svg version="1.1" id="图层_1" xmlns="http://www.w3.org/2000/svg" xmlns:xlink="http://www.w3.org/1999/xlink" x="0px" y="0px"
	 viewBox="0 0 595.3 841.9" style="enable-background:new 0 0 595.3 841.9;" xml:space="preserve">
<style type="text/css">
	.st0{clip-path:url(#SVGID_2_);fill-rule:evenodd;clip-rule:evenodd;fill:#CEB18A;}
	.st1{clip-path:url(#SVGID_2_);fill-rule:evenodd;clip-rule:evenodd;fill:#EB6148;}
	.st2{clip-path:url(#SVGID_2_);fill-rule:evenodd;clip-rule:evenodd;fill:#AEC1D9;}
	.st3{clip-path:url(#SVGID_2_);fill-rule:evenodd;clip-rule:evenodd;fill:#9D2B29;}
	.st4{clip-path:url(#SVGID_2_);fill-rule:evenodd;clip-rule:evenodd;fill:#147C3B;}
	.st5{clip-path:url(#SVGID_2_);fill-rule:evenodd;clip-rule:evenodd;fill:#EFEA3A;}
	.st6{clip-path:url(#SVGID_2_);fill-rule:evenodd;clip-rule:evenodd;fill:#71C7D5;}
	.st7{clip-path:url(#SVGID_2_);fill-rule:evenodd;clip-rule:evenodd;fill:#F5A116;}
	.st8{clip-path:url(#SVGID_2_);fill-rule:evenodd;clip-rule:evenodd;fill:#17499D;}
	.st9{clip-path:url(#SVGID_2_);fill-rule:evenodd;clip-rule:evenodd;fill:#AB539B;}
	.st10{clip-path:url(#SVGID_2_);fill-rule:evenodd;clip-rule:evenodd;fill:#344593;}
	.st11{clip-path:url(#SVGID_2_);fill-rule:evenodd;clip-rule:evenodd;fill:#34AA4B;}
	.st12{clip-path:url(#SVGID_2_);fill-rule:evenodd;clip-rule:evenodd;fill:#E56626;}
	.st13{clip-path:url(#SVGID_2_);}
	.st14{fill:#040000;}
	.st15{font-family:'ArialMT';}
	.st16{font-size:11.2598px;}
	.st17{fill:#323333;}
</style>
<g>
	<defs>
		<polygon id="SVGID_1_" points="190.3,183 379.7,183 379.7,411.2 190.3,411.2 190.3,183 		"/>
	</defs>
	<clipPath id="SVGID_2_">
		<use xlink:href="#SVGID_1_"  style="overflow:visible;"/>
	</clipPath>
	<polyline class="st0" points="189.6,196.5 189.6,211.5 244.4,211.5 244.4,196.5 189.6,196.5 	"/>
	<polyline class="st1" points="189.6,210.8 189.6,225.8 244.4,225.8 244.4,210.8 189.6,210.8 	"/>
	<polyline class="st2" points="189.6,225 189.6,240 244.4,240 244.4,225 189.6,225 	"/>
	<polyline class="st3" points="189.6,239.3 189.6,254.3 244.4,254.3 244.4,239.3 189.6,239.3 	"/>
	<polyline class="st4" points="189.6,253.6 189.6,268.6 244.4,268.6 244.4,253.6 189.6,253.6 	"/>
	<polyline class="st5" points="189.6,267.8 189.6,282.8 244.4,282.8 244.4,267.8 189.6,267.8 	"/>
	<polyline class="st6" points="189.6,282.1 189.6,297.1 244.4,297.1 244.4,282.1 189.6,282.1 	"/>
	<polyline class="st7" points="189.6,296.3 189.6,311.4 244.4,311.4 244.4,296.3 189.6,296.3 	"/>
	<polyline class="st8" points="189.6,310.6 189.6,325.6 244.4,325.6 244.4,310.6 189.6,310.6 	"/>
	<polyline class="st9" points="189.6,324.9 189.6,339.9 244.4,339.9 244.4,324.9 189.6,324.9 	"/>
	<polyline class="st10" points="189.6,367.7 189.6,382.7 244.4,382.7 244.4,367.7 189.6,367.7 	"/>
	<polyline class="st11" points="189.6,381.9 189.6,396.9 244.4,396.9 244.4,381.9 189.6,381.9 	"/>
	<polyline class="st12" points="189.6,396.2 189.6,411.2 244.4,411.2 244.4,396.2 189.6,396.2 	"/>
	<g class="st13">
		<text transform="matrix(1.0011 0 0 1 245.9375 194.2495)"><tspan x="0" y="0" class="st14 st15 st16">T</tspan><tspan x="6.8" y="0" class="st14 st15 st16">E</tspan><tspan x="14.3" y="0" class="st14 st15 st16"> t</tspan><tspan x="20.3" y="0" class="st14 st15 st16">y</tspan><tspan x="25.5" y="0" class="st14 st15 st16">p</tspan><tspan x="31.6" y="0" class="st14 st15 st16">e</tspan></text>
	</g>
	<g class="st13">
		<text transform="matrix(1.0011 0 0 1 300.0391 194.2495)"><tspan x="0" y="0" class="st14 st15 st16">c</tspan><tspan x="6" y="0" class="st14 st15 st16">olo</tspan><tspan x="20.3" y="0" class="st14 st15 st16">r</tspan><tspan x="24" y="0" class="st14 st15 st16"> </tspan><tspan x="27" y="0" class="st14 st15 st16">na</tspan><tspan x="39.1" y="0" class="st14 st15 st16">m</tspan><tspan x="48.8" y="0" class="st14 st15 st16">e</tspan></text>
	</g>
	<g class="st13">
		<text transform="matrix(1.0011 0 0 1 245.9375 208.5229)"><tspan x="0" y="0" class="st14 st15 st16">G</tspan><tspan x="8.3" y="0" class="st14 st15 st16">y</tspan><tspan x="13.5" y="0" class="st14 st15 st16">p</tspan><tspan x="19.5" y="0" class="st14 st15 st16">s</tspan><tspan x="25.5" y="0" class="st14 st15 st16">y</tspan></text>
	</g>
	<g class="st13">
		<text transform="matrix(1.0011 0 0 1 300.0391 208.5229)"><tspan x="0" y="0" class="st14 st15 st16">t</tspan><tspan x="3" y="0" class="st14 st15 st16">a</tspan><tspan x="9" y="0" class="st14 st15 st16">n</tspan></text>
	</g>
	<g class="st13">
		<text transform="matrix(1.0011 0 0 1 245.9375 222.7886)"><tspan x="0" y="0" class="st14 st15 st16">C</tspan><tspan x="8.3" y="0" class="st14 st15 st16">opi</tspan><tspan x="22.5" y="0" class="st14 st15 st16">a</tspan></text>
	</g>
	<g class="st13">
		<text transform="matrix(1.0011 0 0 1 300.0391 222.7886)"><tspan x="0" y="0" class="st14 st15 st16">t</tspan><tspan x="3" y="0" class="st14 st15 st16">o</tspan><tspan x="9" y="0" class="st14 st15 st16">m</tspan><tspan x="18.8" y="0" class="st14 st15 st16">a</tspan><tspan x="24.8" y="0" class="st14 st15 st16">t</tspan><tspan x="27.8" y="0" class="st14 st15 st16">o</tspan></text>
	</g>
	<g class="st13">
		<text transform="matrix(1.0011 0 0 1 245.9375 237.0464)"><tspan x="0" y="0" class="st14 st15 st16">o</tspan><tspan x="6" y="0" class="st14 st15 st16">t</tspan><tspan x="9" y="0" class="st14 st15 st16">he</tspan><tspan x="21" y="0" class="st14 st15 st16">r</tspan><tspan x="24.8" y="0" class="st14 st15 st16">_L</tspan><tspan x="36.8" y="0" class="st14 st15 st16">T</tspan><tspan x="43.6" y="0" class="st14 st15 st16">R</tspan></text>
	</g>
	<g class="st13">
		<text transform="matrix(1.0011 0 0 1 300.0391 237.0464)"><tspan x="0" y="0" class="st17 st15 st16">ligh</tspan><tspan x="16.5" y="0" class="st17 st15 st16">t</tspan><tspan x="19.5" y="0" class="st17 st15 st16">s</tspan><tspan x="25.5" y="0" class="st17 st15 st16">t</tspan><tspan x="28.5" y="0" class="st17 st15 st16">eelblu</tspan><tspan x="57.1" y="0" class="st17 st15 st16">e</tspan></text>
	</g>
	<g class="st13">
		<text transform="matrix(1.0011 0 0 1 245.9375 251.3042)"><tspan x="0" y="0" class="st14 st15 st16">nonL</tspan><tspan x="24.1" y="0" class="st14 st15 st16">T</tspan><tspan x="30.8" y="0" class="st14 st15 st16">R</tspan></text>
	</g>
	<g class="st13">
		<text transform="matrix(1.0011 0 0 1 300.0391 251.3042)"><tspan x="0" y="0" class="st14 st15 st16">b</tspan><tspan x="6" y="0" class="st14 st15 st16">r</tspan><tspan x="9.8" y="0" class="st14 st15 st16">o</tspan><tspan x="15.8" y="0" class="st14 st15 st16">w</tspan><tspan x="24" y="0" class="st14 st15 st16">n</tspan></text>
	</g>
	<g class="st13">
		<text transform="matrix(1.0011 0 0 1 245.9375 265.5698)"><tspan x="0" y="0" class="st14 st15 st16">D</tspan><tspan x="8.3" y="0" class="st14 st15 st16">N</tspan><tspan x="15.8" y="0" class="st14 st15 st16">A</tspan><tspan x="22.5" y="0" class="st14 st15 st16">T</tspan><tspan x="29.3" y="0" class="st14 st15 st16">E</tspan></text>
	</g>
	<g class="st13">
		<text transform="matrix(1.0011 0 0 1 300.0391 265.5698)"><tspan x="0" y="0" class="st14 st15 st16">g</tspan><tspan x="6" y="0" class="st14 st15 st16">r</tspan><tspan x="9.8" y="0" class="st14 st15 st16">ee</tspan><tspan x="21.8" y="0" class="st14 st15 st16">n</tspan></text>
	</g>
	<g class="st13">
		<text transform="matrix(1.0011 0 0 1 245.9375 279.8276)"><tspan x="0" y="0" class="st14 st15 st16">r</tspan><tspan x="3.7" y="0" class="st14 st15 st16">D</tspan><tspan x="12" y="0" class="st14 st15 st16">N</tspan><tspan x="19.5" y="0" class="st14 st15 st16">A</tspan></text>
	</g>
	<g class="st13">
		<text transform="matrix(1.0011 0 0 1 300.0391 279.8276)"><tspan x="0" y="0" class="st14 st15 st16">y</tspan><tspan x="5.3" y="0" class="st14 st15 st16">ello</tspan><tspan x="21.8" y="0" class="st14 st15 st16">w</tspan></text>
	</g>
	<g class="st13">
		<text transform="matrix(1.0011 0 0 1 245.9375 294.0933)"><tspan x="0" y="0" class="st14 st15 st16">S</tspan><tspan x="7.5" y="0" class="st14 st15 st16">a</tspan><tspan x="13.5" y="0" class="st14 st15 st16">t</tspan><tspan x="16.5" y="0" class="st14 st15 st16">elli</tspan><tspan x="29.3" y="0" class="st14 st15 st16">t</tspan><tspan x="32.3" y="0" class="st14 st15 st16">e</tspan></text>
	</g>
	<g class="st13">
		<text transform="matrix(1.0011 0 0 1 300.0391 294.0933)"><tspan x="0" y="0" class="st14 st15 st16">aqu</tspan><tspan x="18" y="0" class="st14 st15 st16">a</tspan></text>
	</g>
	<g class="st13">
		<text transform="matrix(1.0011 0 0 1 245.9375 308.3589)"><tspan x="0" y="0" class="st14 st15 st16">t</tspan><tspan x="3" y="0" class="st14 st15 st16">elo</tspan><tspan x="17.3" y="0" class="st14 st15 st16">m</tspan><tspan x="27" y="0" class="st14 st15 st16">e</tspan><tspan x="33.1" y="0" class="st14 st15 st16">re</tspan></text>
	</g>
	<g class="st13">
		<text transform="matrix(1.0011 0 0 1 300.0391 308.3589)"><tspan x="0" y="0" class="st14 st15 st16">o</tspan><tspan x="6" y="0" class="st14 st15 st16">r</tspan><tspan x="9.8" y="0" class="st14 st15 st16">ang</tspan><tspan x="27.8" y="0" class="st14 st15 st16">e</tspan></text>
	</g>
	<g class="st13">
		<text transform="matrix(1.0011 0 0 1 245.9375 322.6245)"><tspan x="0" y="0" class="st14 st15 st16">T</tspan><tspan x="6.8" y="0" class="st14 st15 st16">A</tspan><tspan x="13.5" y="0" class="st14 st15 st16">G</tspan></text>
	</g>
	<g class="st13">
		<text transform="matrix(1.0011 0 0 1 300.0391 322.6245)"><tspan x="0" y="0" class="st14 st15 st16">blu</tspan><tspan x="14.3" y="0" class="st14 st15 st16">e</tspan></text>
	</g>
	<g class="st13">
		<text transform="matrix(1.0011 0 0 1 245.9375 336.8823)"><tspan x="0" y="0" class="st14 st15 st16">o</tspan><tspan x="6" y="0" class="st14 st15 st16">t</tspan><tspan x="9" y="0" class="st14 st15 st16">he</tspan><tspan x="21" y="0" class="st14 st15 st16">r</tspan><tspan x="24.8" y="0" class="st14 st15 st16"> </tspan><tspan x="27.8" y="0" class="st14 st15 st16">SSR</tspan></text>
	</g>
	<g class="st13">
		<text transform="matrix(1.0011 0 0 1 300.0391 336.8823)"><tspan x="0" y="0" class="st17 st15 st16">m</tspan><tspan x="9.8" y="0" class="st17 st15 st16">agen</tspan><tspan x="33.8" y="0" class="st17 st15 st16">t</tspan><tspan x="36.8" y="0" class="st17 st15 st16">a</tspan></text>
	</g>
	<g class="st13">
		<text transform="matrix(1.0011 0 0 1 245.9375 365.4058)"><tspan x="0" y="0" class="st14 st15 st16">r</tspan><tspan x="3.7" y="0" class="st14 st15 st16">D</tspan><tspan x="12" y="0" class="st14 st15 st16">N</tspan><tspan x="19.5" y="0" class="st14 st15 st16">A</tspan><tspan x="26.3" y="0" class="st14 st15 st16"> </tspan><tspan x="29.3" y="0" class="st14 st15 st16">pa</tspan><tspan x="41.3" y="0" class="st14 st15 st16">rt</tspan></text>
	</g>
	<g class="st13">
		<text transform="matrix(1.0011 0 0 1 300.0391 365.4058)"><tspan x="0" y="0" class="st14 st15 st16">R</tspan><tspan x="8.3" y="0" class="st14 st15 st16">G</tspan><tspan x="16.5" y="0" class="st14 st15 st16">B</tspan><tspan x="24" y="0" class="st14 st15 st16"> </tspan><tspan x="27" y="0" class="st14 st15 st16">v</tspan><tspan x="32.3" y="0" class="st14 st15 st16">alu</tspan><tspan x="46.6" y="0" class="st14 st15 st16">e</tspan></text>
	</g>
	<g class="st13">
		<text transform="matrix(1.0011 0 0 1 245.9375 379.6714)"><tspan x="0" y="0" class="st14 st15 st16">s</tspan><tspan x="6" y="0" class="st14 st15 st16">pa</tspan><tspan x="18" y="0" class="st14 st15 st16">c</tspan><tspan x="24" y="0" class="st14 st15 st16">e</tspan><tspan x="30" y="0" class="st14 st15 st16">r</tspan></text>
	</g>
	<g class="st13">
		<text transform="matrix(1.0011 0 0 1 300.0391 379.6714)"><tspan x="0" y="0" class="st14 st15 st16">54</tspan><tspan x="12" y="0" class="st14 st15 st16"> </tspan><tspan x="15" y="0" class="st14 st15 st16">72</tspan><tspan x="27.1" y="0" class="st14 st15 st16"> </tspan><tspan x="30.1" y="0" class="st14 st15 st16">15</tspan><tspan x="42.1" y="0" class="st14 st15 st16">7</tspan></text>
	</g>
	<g class="st13">
		<text transform="matrix(1.0011 0 0 1 245.9375 393.9292)"><tspan x="0" y="0" class="st14 st15 st16">L</tspan><tspan x="6" y="0" class="st14 st15 st16">SU</tspan></text>
	</g>
	<g class="st13">
		<text transform="matrix(1.0011 0 0 1 300.0391 393.9292)"><tspan x="0" y="0" class="st14 st15 st16">45</tspan><tspan x="12" y="0" class="st14 st15 st16"> </tspan><tspan x="15" y="0" class="st14 st15 st16">179</tspan><tspan x="33.1" y="0" class="st14 st15 st16"> </tspan><tspan x="36.1" y="0" class="st14 st15 st16">7</tspan><tspan x="42.1" y="0" class="st14 st15 st16">5</tspan></text>
	</g>
	<g class="st13">
		<text transform="matrix(1.0011 0 0 1 245.9375 408.2026)" class="st14 st15 st16">SSU</text>
	</g>
	<g class="st13">
		<text transform="matrix(1.0011 0 0 1 300.0391 408.2026)"><tspan x="0" y="0" class="st14 st15 st16">242</tspan><tspan x="18" y="0" class="st14 st15 st16"> </tspan><tspan x="21" y="0" class="st14 st15 st16">104</tspan><tspan x="39.1" y="0" class="st14 st15 st16"> </tspan><tspan x="42.1" y="0" class="st14 st15 st16">3</tspan><tspan x="48.1" y="0" class="st14 st15 st16">4</tspan></text>
	</g>
</g>
</svg>
